<?xml version="1.0" encoding="UTF-8" standalone="no"?>
<!-- Created with Inkscape (http://www.inkscape.org/) -->

<svg
   xmlns:dc="http://purl.org/dc/elements/1.1/"
   xmlns:cc="http://creativecommons.org/ns#"
   xmlns:rdf="http://www.w3.org/1999/02/22-rdf-syntax-ns#"
   xmlns:svg="http://www.w3.org/2000/svg"
   xmlns="http://www.w3.org/2000/svg"
   xmlns:sodipodi="http://sodipodi.sourceforge.net/DTD/sodipodi-0.dtd"
   xmlns:inkscape="http://www.inkscape.org/namespaces/inkscape"
   id="svg2"
   version="1.1"
   inkscape:version="0.91 r13725"
   width="525"
   height="825"
   viewBox="0 0 525 825"
   sodipodi:docname="BballStatsJerseyBlack.svg">
  <metadata
     id="metadata8">
    <rdf:RDF>
      <cc:Work
         rdf:about="">
        <dc:format>image/svg+xml</dc:format>
        <dc:type
           rdf:resource="http://purl.org/dc/dcmitype/StillImage" />
        <dc:title></dc:title>
      </cc:Work>
    </rdf:RDF>
  </metadata>
  <defs
     id="defs6" />
  <sodipodi:namedview
     pagecolor="#ffffff"
     bordercolor="#666666"
     borderopacity="1"
     objecttolerance="10"
     gridtolerance="10"
     guidetolerance="10"
     inkscape:pageopacity="0"
     inkscape:pageshadow="2"
     inkscape:window-width="1224"
     inkscape:window-height="775"
     id="namedview4"
     showgrid="false"
     inkscape:zoom="0.57212121"
     inkscape:cx="291.67744"
     inkscape:cy="342.18812"
     inkscape:window-x="51"
     inkscape:window-y="0"
     inkscape:window-maximized="0"
     inkscape:current-layer="svg2" />
  <path
     style="fill:#000000"
     d="M 247.5,818.40808 C 206.43179,816.90525 165.73126,809.07884 126.875,795.21279 91.89556,782.7302 65.14646,769.44688 34.82182,749.50015 L 16.518652,737.46082 15.905032,557.41685 c -0.61052,-179.13483 -0.62736,-180.10672 -3.33429,-192.47271 -2.8852497,-13.18061 -2.6743197,-16.65876 1.32442,-21.83973 6.01193,-7.78934 11.123608,-15.06128 13.349528,-18.99118 1.32096,-2.33219 3.89873,-6.77159 5.72837,-9.86534 3.07059,-5.1921 11.33356,-21.76401 15.26999,-30.625 12.45539,-28.03729 24.11535,-72.52191 26.7187,-101.93611 1.6105,-18.19644 1.61399,-54.69804 0.007,-69.31389 -2.81858,-25.629565 -2.93904,-30.345515 -0.85628,-33.524205 3.31167,-5.05424 98.99055,-68.3508 103.31886,-68.3508 1.13391,0 4.2852,2.29802 7.00285,5.10671 8.29637,8.57429 23.93022,19.64978 36.08063,25.56061 29.26436,14.23628 61.8472,16.52784 93.23556,6.55729 20.39811,-6.47949 28.76095,-11.52197 46.36327,-27.95536 l 11.37135,-10.6162098 3.4947,2.2359798 c 4.8566,3.10735 72.55328,58.14716 80.21092,65.21434 l 6.25386,5.77164 -1.64469,13.75 c -2.36361,19.760465 -2.00272,66.111325 0.66666,85.625005 2.75524,20.14125 6.26778,37.05514 11.42192,55 4.24638,14.78434 15.15361,45.27464 18.56451,51.89564 1.05669,2.05115 3.67417,7.38561 5.81665,11.85436 5.13754,10.71582 9.03342,18.01591 10.75107,20.14531 0.76738,0.95133 2.89944,4.46215 4.73792,7.80184 l 3.34268,6.07215 -1.89995,10.17785 c -5.06053,27.10884 -7.34573,87.19645 -7.39908,194.55285 -0.0281,56.65228 0.60208,103.74975 1.76471,131.875 0.99467,24.0625 1.8085,48.74267 1.8085,54.84483 l 0,11.09482 -5.86654,5.15518 c -12.27981,10.79078 -48.43432,31.24972 -76.44027,43.25564 -31.71984,13.59804 -68.69519,24.05735 -101.75913,28.78485 -14.40975,2.06032 -65.35574,5.60567 -67.80906,4.71885 -0.34375,-0.12425 -4.84375,-0.3803 -10,-0.56898 z m 84.44175,-15.93434 c 31.75106,-4.4714 60.27839,-11.5699 89.74504,-22.33137 12.82946,-4.68543 17.58225,-6.99522 18.35639,-8.92094 0.57452,-1.4292 1.56148,-114.15545 2.19326,-250.50279 l 1.14867,-247.90424 -4.08245,-13.44697 c -11.45639,-37.73559 -14.85654,-62.1573 -14.89647,-106.99454 -0.0302,-33.91106 0.42982,-40.12651 5.01205,-67.715425 0.63932,-3.84924 -0.009,-4.50845 -22.12213,-22.5 -12.52941,-10.19402 -23.72606,-19.22012 -24.88144,-20.058 -1.80136,-1.30635 -3.68118,-0.0797 -13.19296,8.60879 -20.30122,18.54408 -42.05186,30.84811 -65.12502,36.84031 -16.54687,4.29729 -41.105,5.33289 -57.72315,2.43413 -30.81192,-5.37461 -60.71058,-20.831 -84.99082,-43.9368 l -11.07218,-10.53663 -22.34278,14.48231 c -12.28851,7.96526 -22.79429,14.9111 -23.34615,15.43519 -0.55187,0.5241 0.68851,7.36387 2.75639,15.19951 5.1875,19.656535 7.37565,33.350025 9.1022,56.961485 3.29995,45.12883 -4.03093,92.60855 -20.81087,134.78513 l -5.47044,13.75 0.71897,237.69934 0.71897,237.69934 18.86909,8.14857 c 43.73595,18.88726 85.94833,29.98144 131.36908,34.52616 16.73154,1.67413 73.68137,0.58495 90.06675,-1.72256 z m 132.72737,-40.87643 c 6.71323,-3.52031 16.63599,-8.95409 22.05057,-12.07506 l 9.84468,-5.67448 -0.82096,-12.61244 c -4.50629,-69.23061 -4.50295,-268.84945 0.006,-345.25599 l 0.81985,-13.89355 -11.95646,-17.98145 c -6.57606,-9.8898 -16.69194,-27.15279 -22.47973,-38.36219 l -10.52323,-20.38073 -0.79374,7.88073 c -0.43656,4.3344 -1.17125,110.67762 -1.63265,236.31824 -0.77728,211.65564 -0.6876,228.4375 1.22056,228.4375 1.13271,0 7.55211,-2.88026 14.26535,-6.40058 z M 82.42649,529.56039 c -0.057,-175.31882 -0.4071,-225.40631 -1.5625,-223.56651 -15.90724,25.32985 -25.83078,38.75984 -41.76483,56.5223 L 30,372.65947 30,547.804 l 0,175.14453 15.29867,10.24946 c 16.61892,11.13397 34.76869,22.2937 36.26383,22.29751 0.51562,10e-4 0.90442,-101.66949 0.86399,-225.93511 z"
     id="path4138"
     inkscape:connector-curvature="0" />
</svg>
